# This file uses centimeters as units for non-parametric coordinates.

mtllib FlatGem.mtl
g default
v -0.384704 0.483721 0.233619
v -0.029893 0.483721 0.321222
v -0.337890 0.598383 0.216650
v -0.076708 0.598383 0.281136
v -0.337890 0.598383 0.057494
v -0.156718 0.598383 0.057494
v -0.384704 0.483721 0.017408
v -0.138586 0.483721 0.017408
v -0.146180 0.471465 -0.187035
v 0.208632 0.471465 -0.132017
v -0.075381 0.640221 -0.218148
v 0.208632 0.640221 -0.132017
v -0.075381 0.640221 -0.372133
v 0.359059 0.640221 -0.358941
v -0.146180 0.471465 -0.403246
v 0.359059 0.471465 -0.358941
v 0.326270 0.471464 -0.309479
v 0.241420 0.471464 -0.181480
v 0.326270 0.547483 -0.309479
v 0.241420 0.547483 -0.181480
v 0.372888 0.471464 -0.093006
v 0.288038 0.471464 0.034992
v 0.372888 0.547483 -0.093006
v 0.288038 0.547483 0.034992
v 0.366540 0.483721 0.128618
v 0.036990 0.483721 0.074878
v 0.339469 0.611791 0.149739
v 0.064877 0.611791 0.104962
v 0.343546 0.611791 0.308366
v 0.162977 0.611791 0.405577
v 0.371433 0.483721 0.318993
v 0.154724 0.483721 0.435661
v -0.211667 0.330274 -0.320277
v -0.232771 0.285813 0.041860
v -0.436700 0.382874 -0.278193
v -0.452235 0.350146 -0.011618
v -0.393264 0.535009 -0.295485
v -0.391832 0.555065 -0.115432
v -0.272388 0.536947 -0.343767
v -0.270443 0.564192 -0.099169
v -0.450005 -0.500000 0.450005
v -0.450005 -0.450005 0.500000
v -0.500000 -0.450005 0.450005
v 0.500000 -0.450005 0.450005
v 0.450005 -0.450005 0.500000
v 0.450005 -0.500000 0.450005
v -0.500000 0.450005 0.450005
v -0.450005 0.450005 0.500000
v -0.450005 0.500000 0.450005
v 0.450005 0.500000 0.450005
v 0.450005 0.450005 0.500000
v 0.500000 0.450005 0.450005
v -0.500000 0.450005 -0.450005
v -0.450005 0.500000 -0.450005
v -0.450005 0.450005 -0.500000
v 0.450005 0.450005 -0.500000
v 0.450005 0.500000 -0.450005
v 0.500000 0.450005 -0.450005
v -0.500000 -0.450005 -0.450005
v -0.450005 -0.450005 -0.500000
v -0.450005 -0.500000 -0.450005
v 0.450005 -0.500000 -0.450005
v 0.450005 -0.450005 -0.500000
v 0.500000 -0.450005 -0.450005
vt 0.391678 0.267888
vt 0.402249 0.440433
vt 0.363118 0.399947
vt 0.362697 0.310115
vt 0.291149 0.364976
vt 0.306228 0.300155
vt 0.250535 0.393409
vt 0.268989 0.265749
vt 0.296896 0.464798
vt 0.374661 0.632706
vt 0.314581 0.635065
vt 0.281668 0.535152
vt 0.238460 0.678073
vt 0.229679 0.535841
vt 0.204782 0.716448
vt 0.170020 0.492280
vt 0.396585 0.737025
vt 0.331063 0.764457
vt 0.332361 0.732258
vt 0.373971 0.727726
vt 0.255573 0.702098
vt 0.241191 0.729459
vt 0.326204 0.665624
vt 0.363968 0.658018
vt 0.244445 0.395856
vt 0.076931 0.456898
vt 0.103198 0.404771
vt 0.194927 0.379171
vt 0.114649 0.300006
vt 0.189787 0.319886
vt 0.071480 0.266133
vt 0.216215 0.277792
vt 0.159488 0.931450
vt 0.176138 0.765228
vt 0.214736 0.858213
vt 0.200544 0.917955
vt 0.246444 0.847076
vt 0.255701 0.920868
vt 0.341159 0.771620
vt 0.297485 0.970941
vt 0.254105 0.241838
vt 0.254105 0.014985
vt 0.985072 0.241838
vt 0.985072 0.014985
vt 0.733015 0.745951
vt 0.745617 0.745951
vt 0.745617 0.519098
vt 0.733015 0.519098
vt 0.493560 0.745951
vt 0.506161 0.745951
vt 0.506161 0.519098
vt 0.493560 0.519098
vt 0.733015 0.493895
vt 0.745617 0.493895
vt 0.745617 0.267041
vt 0.733015 0.267041
vt 0.493560 0.493895
vt 0.506161 0.493895
vt 0.506161 0.267041
vt 0.493560 0.267041
vt 0.506161 0.998008
vt 0.493560 0.998008
vt 0.493560 0.771154
vt 0.506161 0.771154
vt 0.506161 0.014985
vt 0.506161 0.002383
vt 0.733015 0.002383
vt 0.733015 0.014985
vt 0.480958 0.014985
vt 0.506161 0.241838
vt 0.480958 0.241838
vt 0.745617 0.998008
vt 0.733015 0.998008
vt 0.733015 0.771154
vt 0.745617 0.771154
vt 0.758218 0.014985
vt 0.758218 0.241838
vt 0.733015 0.241838
vn -0.233002 0.234791 0.943707
vn -0.233002 0.234791 0.943707
vn -0.233002 0.234791 0.943707
vn -0.233002 0.234791 0.943707
vn 0.000000 1.000000 0.000000
vn 0.000000 1.000000 0.000000
vn 0.000000 1.000000 0.000000
vn 0.000000 1.000000 0.000000
vn 0.000000 0.330013 -0.943976
vn 0.000000 0.330013 -0.943976
vn 0.000000 0.330013 -0.943976
vn 0.000000 0.330013 -0.943976
vn 0.909768 0.257654 -0.325480
vn 0.909768 0.257654 -0.325480
vn 0.909768 0.257654 -0.325480
vn 0.909768 0.257654 -0.325480
vn -0.925809 0.377992 0.000000
vn -0.925809 0.377992 0.000000
vn -0.925809 0.377992 0.000000
vn -0.925809 0.377991 0.000000
vn -0.148779 0.239314 0.959476
vn -0.237655 0.093497 0.966839
vn -0.182444 0.185738 0.965513
vn -0.290214 0.000000 0.956962
vn 0.000000 1.000000 0.000000
vn 0.000000 1.000000 0.000001
vn 0.000000 1.000000 0.000000
vn 0.000000 1.000000 0.000001
vn 0.030350 0.000000 -0.999539
vn 0.045544 0.039219 -0.998192
vn 0.077366 0.121817 -0.989533
vn 0.086426 0.145451 -0.985583
vn 0.833498 0.000000 0.552523
vn 0.833498 0.000000 0.552523
vn 0.833498 0.000000 0.552523
vn 0.833498 0.000000 0.552523
vn -0.922136 0.386865 0.000000
vn -0.922136 0.386865 0.000000
vn -0.922136 0.386865 0.000000
vn -0.922136 0.386865 0.000000
vn 0.833497 0.000000 0.552524
vn 0.833497 0.000000 0.552524
vn 0.833497 0.000000 0.552524
vn 0.833497 0.000000 0.552524
vn 0.833498 -0.000000 0.552523
vn 0.833498 -0.000000 0.552523
vn 0.833498 -0.000000 0.552523
vn 0.833498 0.000000 0.552523
vn 0.833498 0.000000 0.552523
vn 0.833498 0.000000 0.552523
vn 0.833498 0.000000 0.552523
vn 0.833498 0.000000 0.552523
vn 0.977588 0.000000 -0.210526
vn 0.977588 0.000000 -0.210526
vn 0.977588 0.000000 -0.210526
vn 0.977588 0.000000 -0.210526
vn 0.000000 1.000000 -0.000000
vn 0.000000 1.000000 -0.000000
vn 0.000000 1.000000 0.000000
vn 0.000000 1.000000 0.000000
vn -0.977588 0.000000 0.210526
vn -0.977588 0.000000 0.210526
vn -0.977588 0.000000 0.210526
vn -0.977588 0.000000 0.210526
vn 0.157915 0.193090 -0.968390
vn 0.157915 0.193090 -0.968390
vn 0.157915 0.193090 -0.968390
vn 0.157915 0.193090 -0.968390
vn 0.000000 1.000000 0.000000
vn 0.000000 1.000000 -0.000000
vn 0.000000 1.000000 -0.000000
vn 0.000000 1.000000 -0.000000
vn 0.466834 0.173609 0.867136
vn 0.466834 0.173608 0.867137
vn 0.466834 0.173608 0.867137
vn 0.466833 0.173607 0.867137
vn -0.942223 0.132944 0.307476
vn -0.942223 0.132944 0.307476
vn -0.942223 0.132944 0.307476
vn -0.942223 0.132944 0.307476
vn 0.977226 0.210709 -0.025116
vn 0.977226 0.210709 -0.025116
vn 0.977226 0.210709 -0.025116
vn 0.977226 0.210709 -0.025116
vn -0.962007 0.272084 -0.022657
vn -0.962007 0.272084 -0.022657
vn -0.962007 0.272084 -0.022657
vn -0.962007 0.272084 -0.022657
vn -0.059854 0.992124 -0.110037
vn -0.059854 0.992124 -0.110036
vn -0.059854 0.992124 -0.110036
vn -0.059853 0.992124 -0.110036
vn -0.088532 0.440590 0.893332
vn -0.109328 0.454450 0.884038
vn -0.096439 0.445892 0.889876
vn -0.151849 0.481937 0.862948
vn -0.220125 -0.173772 -0.959869
vn -0.251697 -0.139197 -0.957744
vn -0.254349 -0.136251 -0.957467
vn -0.370946 0.000358 -0.928654
vn 0.959910 0.277645 -0.038560
vn 0.978714 0.199183 0.049447
vn 0.977258 0.208376 0.039335
vn 0.981866 0.172599 0.078410
vn -0.051613 -0.997333 0.051613
vn -0.997333 -0.051613 0.051613
vn -0.051613 -0.997333 -0.051613
vn -0.997333 -0.051613 -0.051613
vn -0.051613 -0.051613 0.997333
vn 0.051613 -0.051613 0.997333
vn 0.051613 -0.997333 0.051613
vn -0.997333 0.051613 0.051613
vn -0.051613 0.051613 0.997333
vn 0.997333 -0.051613 0.051613
vn 0.997333 -0.051613 -0.051613
vn 0.051613 -0.997333 -0.051613
vn 0.051613 0.051613 0.997333
vn 0.997333 0.051613 0.051613
vn -0.051613 0.997333 0.051613
vn -0.997333 0.051613 -0.051613
vn -0.051613 0.997333 -0.051613
vn 0.051613 0.997333 0.051613
vn 0.051613 0.997333 -0.051613
vn 0.997333 0.051613 -0.051613
vn -0.051613 0.051613 -0.997333
vn -0.051613 -0.051613 -0.997333
vn 0.051613 0.051613 -0.997333
vn 0.051613 -0.051613 -0.997333
s 1
g pCube15
usemtl initialShadingGroup
f 2/2/1 4/3/2 1/1/3
f 1/1/3 4/3/2 3/4/4
s 2
f 4/3/5 6/5/6 3/4/7
f 3/4/7 6/5/6 5/6/8
s 3
f 6/5/9 8/7/10 5/6/11
f 5/6/11 8/7/10 7/8/12
s 4
f 2/2/13 8/7/14 4/3/15
f 4/3/15 8/7/14 6/5/16
s 5
f 7/8/17 1/1/18 5/6/19
f 5/6/19 1/1/18 3/4/20
s 6
f 9/9/21 10/10/22 11/12/23
f 11/12/23 10/10/22 12/11/24
s 7
f 11/12/25 12/11/26 13/14/27
f 13/14/27 12/11/26 14/13/28
s 8
f 14/13/29 16/15/30 13/14/31
f 13/14/31 16/15/30 15/16/32
s 9
f 22/17/33 21/18/34 24/20/35
f 24/20/35 21/18/34 23/19/36
s 10
f 15/16/37 9/9/38 13/14/39
f 13/14/39 9/9/38 11/12/40
s 11
f 14/13/41 19/21/42 16/15/43
f 16/15/43 19/21/42 17/22/44
s 12
f 14/13/45 12/11/46 19/21/47
f 19/21/47 12/11/46 20/23/48
s 13
f 12/11/49 10/10/50 20/23/51
f 20/23/51 10/10/50 18/24/52
s 14
f 17/22/53 19/21/54 21/18/55
f 21/18/55 19/21/54 23/19/56
s 15
f 19/21/57 20/23/58 23/19/59
f 23/19/59 20/23/58 24/20/60
s 16
f 20/23/61 18/24/62 24/20/63
f 24/20/63 18/24/62 22/17/64
s 17
f 26/26/65 28/27/66 25/25/67
f 25/25/67 28/27/66 27/28/68
s 18
f 28/27/69 30/29/70 27/28/71
f 27/28/71 30/29/70 29/30/72
s 19
f 29/30/73 30/29/74 31/32/75
f 31/32/75 30/29/74 32/31/76
s 20
f 26/26/77 32/31/78 28/27/79
f 28/27/79 32/31/78 30/29/80
s 21
f 25/25/81 27/28/82 31/32/83
f 31/32/83 27/28/82 29/30/84
s 22
f 36/34/85 38/35/86 35/33/87
f 35/33/87 38/35/86 37/36/88
s 23
f 38/35/89 40/37/90 37/36/91
f 37/36/91 40/37/90 39/38/92
s 24
f 34/39/93 40/37/94 36/34/95
f 36/34/95 40/37/94 38/35/96
s 25
f 33/40/97 35/33/98 39/38/99
f 39/38/99 35/33/98 37/36/100
s 26
f 39/38/101 40/37/102 33/40/103
f 33/40/103 40/37/102 34/39/104
s 27
f 41/61/105 43/62/106 61/64/107
f 61/64/107 43/62/106 59/63/108
f 42/65/109 41/66/105 45/68/110
f 45/68/110 41/66/105 46/67/111
f 43/69/106 42/65/109 47/71/112
f 47/71/112 42/65/109 48/70/113
f 44/72/114 46/73/111 64/75/115
f 64/75/115 46/73/111 62/74/116
f 45/68/110 44/76/114 51/78/117
f 51/78/117 44/76/114 52/77/118
f 47/60/112 49/59/119 53/57/120
f 53/57/120 49/59/119 54/58/121
f 49/59/119 48/70/113 50/56/122
f 50/56/122 48/70/113 51/78/117
f 50/56/122 52/55/118 57/53/123
f 57/53/123 52/55/118 58/54/124
f 53/52/120 55/51/125 59/49/108
f 59/49/108 55/51/125 60/50/126
f 55/51/125 54/58/121 56/48/127
f 56/48/127 54/58/121 57/53/123
f 56/48/127 58/47/124 63/45/128
f 63/45/128 58/47/124 64/46/115
f 61/64/107 60/50/126 62/74/116
f 62/74/116 60/50/126 63/45/128
f 42/65/109 45/68/110 48/70/113
f 48/70/113 45/68/110 51/78/117
f 49/59/119 50/56/122 54/58/121
f 54/58/121 50/56/122 57/53/123
f 55/51/125 56/48/127 60/50/126
f 60/50/126 56/48/127 63/45/128
f 61/64/107 62/74/116 41/61/105
f 41/61/105 62/74/116 46/73/111
f 44/76/114 64/44/115 52/77/118
f 52/77/118 64/44/115 58/43/124
f 59/42/108 43/69/106 53/41/120
f 53/41/120 43/69/106 47/71/112
f 41/66/105 42/65/109 43/69/106
f 44/76/114 45/68/110 46/67/111
f 47/71/112 48/70/113 49/59/119
f 50/56/122 51/78/117 52/77/118
f 53/57/120 54/58/121 55/51/125
f 56/48/127 57/53/123 58/54/124
f 59/49/108 60/50/126 61/64/107
f 62/74/116 63/45/128 64/46/115
