# This file uses centimeters as units for non-parametric coordinates.

mtllib FlatGem.mtl
g default
v -0.384704 0.483721 0.233619
v -0.029893 0.483721 0.321222
v -0.337890 0.598383 0.216650
v -0.076708 0.598383 0.281136
v -0.337890 0.598383 0.057494
v -0.156718 0.598383 0.057494
v -0.384704 0.483721 0.017408
v -0.138586 0.483721 0.017408
v -0.146180 0.471465 -0.187035
v 0.208632 0.471465 -0.132017
v -0.075381 0.640221 -0.218148
v 0.208632 0.640221 -0.132017
v -0.075381 0.640221 -0.372133
v 0.359059 0.640221 -0.358941
v -0.146180 0.471465 -0.403246
v 0.359059 0.471465 -0.358941
v 0.326270 0.471464 -0.309479
v 0.241420 0.471464 -0.181480
v 0.326270 0.547483 -0.309479
v 0.241420 0.547483 -0.181480
v 0.372888 0.471464 -0.093006
v 0.288038 0.471464 0.034992
v 0.372888 0.547483 -0.093006
v 0.288038 0.547483 0.034992
v 0.366540 0.483721 0.128618
v 0.036990 0.483721 0.074878
v 0.339469 0.611791 0.149739
v 0.064877 0.611791 0.104962
v 0.343546 0.611791 0.308366
v 0.162977 0.611791 0.405577
v 0.371433 0.483721 0.318993
v 0.154724 0.483721 0.435661
v -0.211667 0.330274 -0.320277
v -0.232771 0.285813 0.041860
v -0.436700 0.382874 -0.278193
v -0.452235 0.350146 -0.011618
v -0.393264 0.535009 -0.295485
v -0.391832 0.555065 -0.115432
v -0.272388 0.536947 -0.343767
v -0.270443 0.564192 -0.099169
v -0.500000 -0.500000 0.500000
v 0.500000 -0.500000 0.500000
v -0.500000 0.500000 0.500000
v 0.500000 0.500000 0.500000
v -0.500000 0.500000 -0.500000
v 0.500000 0.500000 -0.500000
v -0.500000 -0.500000 -0.500000
v 0.500000 -0.500000 -0.500000
vt 0.402249 0.440433
vt 0.363118 0.399947
vt 0.391678 0.267888
vt 0.362697 0.310115
vt 0.291149 0.364976
vt 0.306228 0.300155
vt 0.250535 0.393409
vt 0.268989 0.265749
vt 0.296896 0.464798
vt 0.374661 0.632706
vt 0.281668 0.535152
vt 0.314581 0.635065
vt 0.229679 0.535841
vt 0.238460 0.678073
vt 0.204782 0.716448
vt 0.170020 0.492280
vt 0.396585 0.737025
vt 0.331063 0.764457
vt 0.373971 0.727726
vt 0.332361 0.732258
vt 0.255573 0.702098
vt 0.241191 0.729459
vt 0.326204 0.665624
vt 0.363968 0.658018
vt 0.076931 0.456898
vt 0.103198 0.404771
vt 0.244445 0.395856
vt 0.194927 0.379171
vt 0.114649 0.300006
vt 0.189787 0.319886
vt 0.216215 0.277792
vt 0.071480 0.266133
vt 0.176138 0.765228
vt 0.214736 0.858213
vt 0.159488 0.931450
vt 0.200544 0.917955
vt 0.246444 0.847076
vt 0.255701 0.920868
vt 0.341159 0.771620
vt 0.297485 0.970941
vt 0.494949 0.000000
vt 0.744949 0.000000
vt 0.494949 0.250000
vt 0.744949 0.250000
vt 0.494949 0.500000
vt 0.744949 0.500000
vt 0.494949 0.750000
vt 0.744949 0.750000
vt 0.494949 1.000000
vt 0.744949 1.000000
vt 0.994949 0.000000
vt 0.994949 0.250000
vt 0.244949 0.000000
vt 0.244949 0.250000
vn -0.233002 0.234791 0.943707
vn -0.233002 0.234791 0.943707
vn -0.233002 0.234791 0.943707
vn -0.233002 0.234791 0.943707
vn -0.233002 0.234791 0.943707
vn -0.233002 0.234791 0.943707
vn 0.000000 1.000000 0.000000
vn 0.000000 1.000000 0.000000
vn 0.000000 1.000000 0.000000
vn 0.000000 1.000000 0.000000
vn 0.000000 1.000000 0.000000
vn 0.000000 1.000000 0.000000
vn 0.000000 0.330013 -0.943976
vn 0.000000 0.330013 -0.943976
vn 0.000000 0.330013 -0.943976
vn 0.000000 0.330013 -0.943976
vn 0.000000 0.330013 -0.943976
vn 0.000000 0.330013 -0.943976
vn 0.909768 0.257654 -0.325480
vn 0.909768 0.257654 -0.325480
vn 0.909768 0.257654 -0.325480
vn 0.909768 0.257654 -0.325480
vn 0.909768 0.257654 -0.325480
vn 0.909768 0.257654 -0.325480
vn -0.925809 0.377992 0.000000
vn -0.925809 0.377992 0.000000
vn -0.925809 0.377992 0.000000
vn -0.925809 0.377992 0.000000
vn -0.925809 0.377992 0.000000
vn -0.925809 0.377991 0.000000
vn -0.148779 0.239314 0.959476
vn -0.237655 0.093497 0.966839
vn -0.182444 0.185738 0.965513
vn -0.182444 0.185738 0.965513
vn -0.237655 0.093497 0.966839
vn -0.290214 0.000000 0.956962
vn 0.000000 1.000000 0.000000
vn 0.000000 1.000000 0.000001
vn 0.000000 1.000000 0.000000
vn 0.000000 1.000000 0.000000
vn 0.000000 1.000000 0.000001
vn 0.000000 1.000000 0.000001
vn 0.030350 0.000000 -0.999539
vn 0.045544 0.039219 -0.998192
vn 0.077366 0.121817 -0.989533
vn 0.077366 0.121817 -0.989533
vn 0.045544 0.039219 -0.998192
vn 0.086426 0.145451 -0.985583
vn 0.833498 0.000000 0.552523
vn 0.833498 0.000000 0.552523
vn 0.833498 0.000000 0.552523
vn 0.833498 0.000000 0.552523
vn 0.833498 0.000000 0.552523
vn 0.833498 0.000000 0.552523
vn -0.922136 0.386865 0.000000
vn -0.922136 0.386865 0.000000
vn -0.922136 0.386865 0.000000
vn -0.922136 0.386865 0.000000
vn -0.922136 0.386865 0.000000
vn -0.922136 0.386865 0.000000
vn 0.833497 0.000000 0.552524
vn 0.833497 0.000000 0.552524
vn 0.833497 0.000000 0.552524
vn 0.833497 0.000000 0.552524
vn 0.833497 0.000000 0.552524
vn 0.833497 0.000000 0.552524
vn 0.833498 0.000000 0.552523
vn 0.833498 0.000000 0.552523
vn 0.833498 0.000000 0.552523
vn 0.833498 0.000000 0.552523
vn 0.833498 0.000000 0.552523
vn 0.833498 0.000000 0.552523
vn 0.833498 0.000000 0.552523
vn 0.833498 0.000000 0.552523
vn 0.833498 0.000000 0.552523
vn 0.833498 0.000000 0.552523
vn 0.833498 0.000000 0.552523
vn 0.833498 0.000000 0.552523
vn 0.977588 0.000000 -0.210526
vn 0.977588 0.000000 -0.210526
vn 0.977588 0.000000 -0.210526
vn 0.977588 0.000000 -0.210526
vn 0.977588 0.000000 -0.210526
vn 0.977588 0.000000 -0.210526
vn 0.000000 1.000000 0.000000
vn 0.000000 1.000000 0.000000
vn 0.000000 1.000000 0.000000
vn 0.000000 1.000000 0.000000
vn 0.000000 1.000000 0.000000
vn 0.000000 1.000000 0.000000
vn -0.977588 0.000000 0.210526
vn -0.977588 0.000000 0.210526
vn -0.977588 0.000000 0.210526
vn -0.977588 0.000000 0.210526
vn -0.977588 0.000000 0.210526
vn -0.977588 0.000000 0.210526
vn 0.157915 0.193090 -0.968390
vn 0.157915 0.193090 -0.968390
vn 0.157915 0.193090 -0.968390
vn 0.157915 0.193090 -0.968390
vn 0.157915 0.193090 -0.968390
vn 0.157915 0.193090 -0.968390
vn 0.000000 1.000000 0.000000
vn 0.000000 1.000000 0.000000
vn 0.000000 1.000000 0.000000
vn 0.000000 1.000000 0.000000
vn 0.000000 1.000000 0.000000
vn 0.000000 1.000000 0.000000
vn 0.466834 0.173609 0.867137
vn 0.466834 0.173608 0.867137
vn 0.466834 0.173608 0.867137
vn 0.466834 0.173608 0.867137
vn 0.466834 0.173608 0.867137
vn 0.466833 0.173607 0.867137
vn -0.942223 0.132944 0.307476
vn -0.942223 0.132944 0.307476
vn -0.942223 0.132944 0.307476
vn -0.942223 0.132944 0.307476
vn -0.942223 0.132944 0.307476
vn -0.942223 0.132944 0.307476
vn 0.977226 0.210709 -0.025116
vn 0.977226 0.210709 -0.025116
vn 0.977226 0.210709 -0.025116
vn 0.977226 0.210709 -0.025116
vn 0.977226 0.210709 -0.025116
vn 0.977226 0.210709 -0.025116
vn -0.962007 0.272084 -0.022657
vn -0.962007 0.272084 -0.022657
vn -0.962007 0.272084 -0.022657
vn -0.962007 0.272084 -0.022657
vn -0.962007 0.272084 -0.022657
vn -0.962007 0.272084 -0.022657
vn -0.059854 0.992124 -0.110037
vn -0.059854 0.992124 -0.110036
vn -0.059854 0.992124 -0.110036
vn -0.059854 0.992124 -0.110036
vn -0.059854 0.992124 -0.110036
vn -0.059853 0.992124 -0.110036
vn -0.088532 0.440590 0.893332
vn -0.109328 0.454450 0.884038
vn -0.096439 0.445892 0.889876
vn -0.096439 0.445892 0.889876
vn -0.109328 0.454450 0.884038
vn -0.151849 0.481937 0.862948
vn -0.220125 -0.173772 -0.959869
vn -0.251697 -0.139197 -0.957744
vn -0.254349 -0.136251 -0.957467
vn -0.254349 -0.136251 -0.957467
vn -0.251697 -0.139197 -0.957744
vn -0.370946 0.000358 -0.928654
vn 0.959910 0.277645 -0.038560
vn 0.978714 0.199183 0.049447
vn 0.977258 0.208376 0.039335
vn 0.977258 0.208376 0.039335
vn 0.978714 0.199183 0.049447
vn 0.981866 0.172599 0.078410
vn 0.000000 0.000000 1.000000
vn 0.000000 0.000000 1.000000
vn 0.000000 0.000000 1.000000
vn 0.000000 0.000000 1.000000
vn 0.000000 1.000000 0.000000
vn 0.000000 1.000000 0.000000
vn 0.000000 1.000000 0.000000
vn 0.000000 1.000000 0.000000
vn 0.000000 0.000000 -1.000000
vn 0.000000 0.000000 -1.000000
vn 0.000000 0.000000 -1.000000
vn 0.000000 0.000000 -1.000000
vn 0.000000 -1.000000 0.000000
vn 0.000000 -1.000000 0.000000
vn 0.000000 -1.000000 0.000000
vn 0.000000 -1.000000 0.000000
vn 1.000000 0.000000 0.000000
vn 1.000000 0.000000 0.000000
vn 1.000000 0.000000 0.000000
vn 1.000000 0.000000 0.000000
vn -1.000000 0.000000 0.000000
vn -1.000000 0.000000 0.000000
vn -1.000000 0.000000 0.000000
vn -1.000000 0.000000 0.000000
s off
g FlatGem:pCube16
usemtl initialShadingGroup
f 2/1/1 4/2/2 1/3/3
f 1/3/4 4/2/5 3/4/6
f 4/2/7 6/5/8 3/4/9
f 3/4/10 6/5/11 5/6/12
f 6/5/13 8/7/14 5/6/15
f 5/6/16 8/7/17 7/8/18
f 2/1/19 8/7/20 4/2/21
f 4/2/22 8/7/23 6/5/24
f 7/8/25 1/3/26 5/6/27
f 5/6/28 1/3/29 3/4/30
f 9/9/31 10/10/32 11/11/33
f 11/11/34 10/10/35 12/12/36
f 11/11/37 12/12/38 13/13/39
f 13/13/40 12/12/41 14/14/42
f 14/14/43 16/15/44 13/13/45
f 13/13/46 16/15/47 15/16/48
f 22/17/49 21/18/50 24/19/51
f 24/19/52 21/18/53 23/20/54
f 15/16/55 9/9/56 13/13/57
f 13/13/58 9/9/59 11/11/60
f 14/14/61 19/21/62 16/15/63
f 16/15/64 19/21/65 17/22/66
f 14/14/67 12/12/68 19/21/69
f 19/21/70 12/12/71 20/23/72
f 12/12/73 10/10/74 20/23/75
f 20/23/76 10/10/77 18/24/78
f 17/22/79 19/21/80 21/18/81
f 21/18/82 19/21/83 23/20/84
f 19/21/85 20/23/86 23/20/87
f 23/20/88 20/23/89 24/19/90
f 20/23/91 18/24/92 24/19/93
f 24/19/94 18/24/95 22/17/96
f 26/25/97 28/26/98 25/27/99
f 25/27/100 28/26/101 27/28/102
f 28/26/103 30/29/104 27/28/105
f 27/28/106 30/29/107 29/30/108
f 29/30/109 30/29/110 31/31/111
f 31/31/112 30/29/113 32/32/114
f 26/25/115 32/32/116 28/26/117
f 28/26/118 32/32/119 30/29/120
f 25/27/121 27/28/122 31/31/123
f 31/31/124 27/28/125 29/30/126
f 36/33/127 38/34/128 35/35/129
f 35/35/130 38/34/131 37/36/132
f 38/34/133 40/37/134 37/36/135
f 37/36/136 40/37/137 39/38/138
f 34/39/139 40/37/140 36/33/141
f 36/33/142 40/37/143 38/34/144
f 33/40/145 35/35/146 39/38/147
f 39/38/148 35/35/149 37/36/150
f 39/38/151 40/37/152 33/40/153
f 33/40/154 40/37/155 34/39/156
s 1
f 41/41/157 42/42/158 43/43/159
f 43/43/159 42/42/158 44/44/160
s 2
f 43/43/161 44/44/162 45/45/163
f 45/45/163 44/44/162 46/46/164
s 3
f 45/45/165 46/46/166 47/47/167
f 47/47/167 46/46/166 48/48/168
s 4
f 47/47/169 48/48/170 41/49/171
f 41/49/171 48/48/170 42/50/172
s 5
f 42/42/173 48/51/174 44/44/175
f 44/44/175 48/51/174 46/52/176
s 6
f 47/53/177 41/41/178 45/54/179
f 45/54/179 41/41/178 43/43/180
