# This file uses centimeters as units for non-parametric coordinates.

mtllib TallGem.mtl
g default
v -0.450005 -0.500000 0.450005
v -0.450005 -0.450005 0.500000
v -0.500000 -0.450005 0.450005
v 0.500000 -0.450005 0.450005
v 0.450005 -0.450005 0.500000
v 0.450005 -0.500000 0.450005
v -0.500000 0.450005 0.450005
v -0.450005 0.450005 0.500000
v -0.450005 0.500000 0.450005
v 0.450005 0.500000 0.450005
v 0.450005 0.450005 0.500000
v 0.500000 0.450005 0.450005
v -0.500000 0.450005 -0.450005
v -0.450005 0.500000 -0.450005
v -0.450005 0.450005 -0.500000
v 0.450005 0.450005 -0.500000
v 0.450005 0.500000 -0.450005
v 0.500000 0.450005 -0.450005
v -0.500000 -0.450005 -0.450005
v -0.450005 -0.450005 -0.500000
v -0.450005 -0.500000 -0.450005
v 0.450005 -0.500000 -0.450005
v 0.450005 -0.450005 -0.500000
v 0.500000 -0.450005 -0.450005
v -0.006990 0.458941 0.338191
v 0.047926 0.456874 0.384962
v -0.089110 0.575175 0.383391
v 0.013122 0.596115 0.479028
v -0.008484 0.635605 0.283974
v 0.093748 0.656545 0.379610
v 0.037722 0.482631 0.286740
v 0.092638 0.480564 0.333511
v -0.022982 0.673390 0.395950
v -0.290826 0.419128 -0.011060
v -0.156542 0.478001 0.063883
v -0.464127 0.697844 -0.102620
v -0.211521 0.862386 0.013318
v -0.299134 0.635148 -0.373124
v -0.046528 0.799690 -0.257186
v -0.198918 0.373382 -0.139805
v -0.064634 0.432255 -0.064861
v -0.307855 0.872129 -0.240534
v 0.115625 0.367672 0.195319
v 0.280291 0.367672 0.195319
v 0.048573 0.617580 0.311082
v 0.366168 0.676214 0.306449
v 0.037595 0.651684 -0.009920
v 0.355189 0.710318 -0.014553
v 0.115625 0.367672 0.030652
v 0.280291 0.367672 0.030652
v 0.175556 0.807819 0.164449
v 0.086497 0.476687 -0.259938
v 0.139496 0.483160 -0.211393
v 0.052836 0.617556 -0.296269
v 0.160640 0.653455 -0.211856
v 0.144371 0.583929 -0.398868
v 0.252176 0.619828 -0.314455
v 0.133998 0.452469 -0.308567
v 0.186997 0.458942 -0.260021
v 0.149787 0.679160 -0.327606
v 0.281839 0.466581 -0.305575
v 0.349119 0.472825 -0.280240
v 0.252766 0.600288 -0.365362
v 0.386917 0.631709 -0.332920
v 0.297069 0.528499 -0.479028
v 0.431219 0.559920 -0.446586
v 0.305758 0.423828 -0.358561
v 0.373039 0.430072 -0.333227
v 0.337994 0.633807 -0.441451
vt 0.254041 0.998008
vt 0.241435 0.998008
vt 0.241435 0.771066
vt 0.254041 0.001992
vt 0.254041 0.014599
vt 0.493590 0.998008
vt 0.480984 0.998008
vt 0.493590 0.771066
vt 0.506197 0.014599
vt 0.241435 0.266754
vt 0.241435 0.493697
vt 0.254041 0.241541
vt 0.480984 0.241541
vt 0.493590 0.266754
vt 0.241435 0.518910
vt 0.241435 0.745852
vt 0.254041 0.493697
vt 0.480984 0.493697
vt 0.493590 0.518910
vt 0.493590 0.745852
vt 0.254041 0.745852
vt 0.480984 0.745852
vt 0.480984 0.771066
vt 0.480984 0.014599
vt 0.254041 0.266754
vt 0.480984 0.266754
vt 0.254041 0.518910
vt 0.480984 0.518910
vt 0.254041 0.771066
vt 0.733139 0.014599
vt 0.733139 0.241541
vt 0.001885 0.014599
vt 0.228828 0.014599
vt 0.228828 0.241541
vt 0.001885 0.241541
vt 0.480984 0.001992
vt 0.506197 0.241541
vt 0.493590 0.493697
vt 0.821607 0.351414
vt 0.975346 0.587362
vt 0.819291 0.628836
vt 0.835605 0.490404
vt 0.697099 0.474336
vt 0.681109 0.612616
vt 0.705722 0.781230
vt 0.548092 0.471169
vt 0.758276 0.551548
vt 0.830185 0.353972
vt 0.978249 0.588925
vt 0.823753 0.627487
vt 0.841909 0.491231
vt 0.705577 0.473316
vt 0.687742 0.609427
vt 0.709491 0.776056
vt 0.558696 0.467965
vt 0.764745 0.550365
vt 0.821306 0.360573
vt 0.968158 0.588417
vt 0.823373 0.634178
vt 0.845629 0.484491
vt 0.695759 0.462585
vt 0.674039 0.612133
vt 0.689759 0.768247
vt 0.564555 0.456767
vt 0.759700 0.548346
vt 0.967746 0.605372
vt 0.732761 0.769341
vt 0.685543 0.611979
vt 0.826850 0.624098
vt 0.838717 0.482722
vt 0.697574 0.470928
vt 0.551839 0.479579
vt 0.837124 0.331084
vt 0.762171 0.547432
vt 0.838116 0.345142
vt 0.978169 0.600963
vt 0.813742 0.631423
vt 0.841557 0.489772
vt 0.699810 0.462205
vt 0.672341 0.603725
vt 0.684396 0.779785
vt 0.546196 0.447126
vt 0.756863 0.546781
vt 0.520517 0.512746
vt 0.770762 0.324148
vt 0.754466 0.786489
vt 0.979883 0.530582
vt 0.770305 0.312975
vt 0.981096 0.537356
vt 0.552736 0.548730
vt 0.801686 0.763538
vt 0.540942 0.526890
vt 0.749743 0.341938
vt 0.763533 0.772192
vt 0.967152 0.514682
vt 0.538126 0.531832
vt 0.764942 0.337955
vt 0.776480 0.778331
vt 0.975765 0.521933
vt 0.528217 0.536241
vt 0.755210 0.336178
vt 0.773679 0.782508
vt 0.971796 0.519474
vn -0.051613 -0.997333 0.051613
vn -0.997333 -0.051613 0.051613
vn -0.051613 -0.997333 -0.051613
vn -0.997333 -0.051613 -0.051613
vn -0.051613 -0.051613 0.997333
vn 0.051613 -0.051613 0.997333
vn 0.051613 -0.997333 0.051613
vn -0.997333 0.051613 0.051613
vn -0.051613 0.051613 0.997333
vn 0.997333 -0.051613 0.051613
vn 0.997333 -0.051613 -0.051613
vn 0.051613 -0.997333 -0.051613
vn 0.051613 0.051613 0.997333
vn 0.997333 0.051613 0.051613
vn -0.051613 0.997333 0.051613
vn -0.997333 0.051613 -0.051613
vn -0.051613 0.997333 -0.051613
vn 0.051613 0.997333 0.051613
vn 0.051613 0.997333 -0.051613
vn 0.997333 0.051613 -0.051613
vn -0.051613 0.051613 -0.997333
vn -0.051613 -0.051613 -0.997333
vn 0.051613 0.051613 -0.997333
vn 0.051613 -0.051613 -0.997333
vn -0.529263 -0.605181 0.594674
vn -0.508637 -0.580745 0.635629
vn -0.502185 -0.573113 0.647574
vn -0.497478 -0.567549 0.656052
vn 0.649988 0.188732 -0.736136
vn 0.647057 0.185756 -0.739468
vn 0.648903 0.187629 -0.737374
vn 0.641693 0.180344 -0.745457
vn 0.783364 -0.201438 0.588017
vn 0.800780 -0.171609 0.573848
vn 0.807377 -0.159715 0.568008
vn 0.810995 -0.153037 0.564682
vn -0.686188 -0.214496 -0.695081
vn -0.687555 -0.219378 -0.692200
vn -0.687269 -0.218350 -0.692809
vn -0.687800 -0.220260 -0.691677
vn -0.673644 0.371893 0.638671
vn -0.673644 0.371893 0.638671
vn -0.673644 0.371893 0.638671
vn 0.196422 0.759062 0.620679
vn 0.196422 0.759062 0.620679
vn 0.196422 0.759062 0.620679
vn 0.093619 0.946959 -0.307417
vn 0.093619 0.946958 -0.307417
vn 0.093619 0.946958 -0.307417
vn -0.776446 0.559790 -0.289426
vn -0.776446 0.559790 -0.289426
vn -0.776446 0.559790 -0.289426
vn -0.483035 -0.012733 0.875508
vn -0.458449 0.031258 0.888171
vn -0.450836 0.044431 0.891501
vn -0.445304 0.053880 0.893757
vn 0.584199 -0.398786 -0.706882
vn 0.580935 -0.403006 -0.707177
vn 0.582990 -0.400353 -0.706994
vn 0.574974 -0.410633 -0.707662
vn 0.829741 0.187819 0.525599
vn 0.846273 0.199188 0.494113
vn 0.852501 0.203618 0.481438
vn 0.855908 0.206081 0.474291
vn -0.748939 -0.574280 -0.330595
vn -0.750117 -0.575871 -0.325112
vn -0.749871 -0.575537 -0.326267
vn -0.750327 -0.576156 -0.324119
vn -0.607903 0.750412 0.259493
vn -0.607903 0.750412 0.259493
vn -0.607903 0.750412 0.259493
vn 0.262877 0.962783 -0.062808
vn 0.262877 0.962783 -0.062808
vn 0.262877 0.962783 -0.062808
vn 0.080184 0.488943 -0.868623
vn 0.080184 0.488943 -0.868623
vn 0.080184 0.488943 -0.868623
vn -0.790596 0.276572 -0.546321
vn -0.790596 0.276572 -0.546321
vn -0.790596 0.276572 -0.546321
vn 0.000000 -0.420317 0.907377
vn 0.056376 -0.376137 0.924847
vn 0.066208 -0.368197 0.927387
vn 0.079542 -0.357317 0.930590
vn 0.010090 -0.132958 -0.991070
vn 0.007079 -0.135486 -0.990754
vn 0.008507 -0.134288 -0.990906
vn 0.000000 -0.141420 -0.989950
vn 0.976933 -0.213545 0.000000
vn 0.969274 -0.241258 -0.047980
vn 0.971433 -0.234532 -0.036229
vn 0.967001 -0.247753 -0.059394
vn -0.964268 -0.264928 0.000000
vn -0.964896 -0.262609 0.003448
vn -0.964996 -0.262233 0.004005
vn -0.965216 -0.261401 0.005240
vn -0.109345 0.651580 0.750658
vn -0.109345 0.651580 0.750658
vn -0.109345 0.651580 0.750658
vn 0.530014 0.844957 0.071642
vn 0.530014 0.844957 0.071642
vn 0.530014 0.844957 0.071642
vn -0.155130 0.793806 -0.588054
vn -0.155130 0.793806 -0.588053
vn -0.155130 0.793806 -0.588054
vn -0.794488 0.600428 0.090963
vn -0.794488 0.600428 0.090963
vn -0.794488 0.600428 0.090963
vn -0.677036 0.027885 0.735421
vn -0.647085 0.062621 0.759842
vn -0.637764 0.073003 0.766764
vn -0.630979 0.080444 0.771618
vn 0.636472 -0.465841 -0.614732
vn 0.632517 -0.469029 -0.616388
vn 0.635007 -0.467025 -0.615348
vn 0.625297 -0.474778 -0.619346
vn 0.691617 -0.083921 0.717372
vn 0.717653 -0.074218 0.692434
vn 0.727699 -0.070343 0.682280
vn 0.733258 -0.068165 0.676525
vn -0.752267 -0.327237 -0.571849
vn -0.755112 -0.328992 -0.567072
vn -0.754515 -0.328623 -0.568079
vn -0.755624 -0.329308 -0.566206
vn -0.466699 0.853114 0.233214
vn -0.466699 0.853114 0.233214
vn -0.466699 0.853114 0.233214
vn 0.481790 0.863923 0.146680
vn 0.481790 0.863923 0.146680
vn 0.481790 0.863923 0.146680
vn 0.404378 0.533105 -0.743154
vn 0.404378 0.533105 -0.743154
vn 0.404378 0.533105 -0.743154
vn -0.544112 0.522295 -0.656620
vn -0.544112 0.522295 -0.656620
vn -0.544112 0.522295 -0.656620
vn -0.359936 0.314504 0.878370
vn -0.319645 0.347154 0.881652
vn -0.307397 0.356760 0.882173
vn -0.298559 0.363602 0.882415
vn 0.318517 -0.700371 -0.638770
vn 0.313912 -0.703009 -0.638151
vn 0.316810 -0.701352 -0.638543
vn 0.305537 -0.707743 -0.636982
vn 0.889993 -0.061942 0.451746
vn 0.906199 -0.063007 0.418130
vn 0.912275 -0.063404 0.404640
vn 0.915592 -0.063621 0.397044
vn -0.938203 -0.289081 -0.190282
vn -0.939311 -0.289194 -0.184559
vn -0.939080 -0.289171 -0.185764
vn -0.939508 -0.289213 -0.183523
vn -0.256637 0.957147 0.134194
vn -0.256637 0.957147 0.134194
vn -0.256637 0.957147 0.134194
vn 0.592470 0.765071 -0.252280
vn 0.592470 0.765071 -0.252280
vn 0.592470 0.765071 -0.252280
vn 0.164959 0.273985 -0.947481
vn 0.164959 0.273985 -0.947481
vn 0.164959 0.273985 -0.947481
vn -0.684148 0.466060 -0.561007
vn -0.684149 0.466060 -0.561007
vn -0.684148 0.466060 -0.561007
s 1
g pCube9
usemtl initialShadingGroup
f 1/1/1 3/2/2 21/29/3
f 21/29/3 3/2/2 19/3/4
f 2/5/5 1/4/1 5/24/6
f 5/24/6 1/4/1 6/36/7
f 3/33/2 2/5/5 7/34/8
f 7/34/8 2/5/5 8/12/9
f 4/6/10 6/7/7 24/8/11
f 24/8/11 6/7/7 22/23/12
f 5/24/6 4/9/10 11/13/13
f 11/13/13 4/9/10 12/37/14
f 7/10/8 9/25/15 13/11/16
f 13/11/16 9/25/15 14/17/17
f 9/25/15 8/12/9 10/26/18
f 10/26/18 8/12/9 11/13/13
f 10/26/18 12/14/14 17/18/19
f 17/18/19 12/14/14 18/38/20
f 13/15/16 15/27/21 19/16/4
f 19/16/4 15/27/21 20/21/22
f 15/27/21 14/17/17 16/28/23
f 16/28/23 14/17/17 17/18/19
f 16/28/23 18/19/20 23/22/24
f 23/22/24 18/19/20 24/20/11
f 21/29/3 20/21/22 22/23/12
f 22/23/12 20/21/22 23/22/24
f 2/5/5 5/24/6 8/12/9
f 8/12/9 5/24/6 11/13/13
f 9/25/15 10/26/18 14/17/17
f 14/17/17 10/26/18 17/18/19
f 15/27/21 16/28/23 20/21/22
f 20/21/22 16/28/23 23/22/24
f 21/29/3 22/23/12 1/1/1
f 1/1/1 22/23/12 6/7/7
f 4/9/10 24/30/11 12/37/14
f 12/37/14 24/30/11 18/31/20
f 19/32/4 3/33/2 13/35/16
f 13/35/16 3/33/2 7/34/8
f 1/4/1 2/5/5 3/33/2
f 4/9/10 5/24/6 6/36/7
f 7/34/8 8/12/9 9/25/15
f 10/26/18 11/13/13 12/37/14
f 13/11/16 14/17/17 15/27/21
f 16/28/23 17/18/19 18/38/20
f 19/16/4 20/21/22 21/29/3
f 22/23/12 23/22/24 24/20/11
s 2
f 25/103/25 26/40/26 27/42/27
f 27/42/27 26/40/26 28/41/28
s 3
f 30/44/29 32/100/30 29/43/31
f 29/43/31 32/100/30 31/46/32
s 4
f 26/102/33 32/45/34 28/41/35
f 28/41/35 32/45/34 30/44/36
s 5
f 25/39/37 27/42/38 31/101/39
f 31/101/39 27/42/38 29/43/40
s off
f 27/42/41 28/41/42 33/47/43
f 28/41/44 30/44/45 33/47/46
f 30/44/47 29/43/48 33/47/49
f 29/43/50 27/42/51 33/47/52
s 6
f 34/99/53 35/49/54 36/51/55
f 36/51/55 35/49/54 37/50/56
s 7
f 39/53/57 41/96/58 38/52/59
f 38/52/59 41/96/58 40/55/60
s 8
f 35/98/61 41/54/62 37/50/63
f 37/50/63 41/54/62 39/53/64
s 9
f 34/48/65 36/51/66 40/97/67
f 40/97/67 36/51/66 38/52/68
s off
f 36/51/69 37/50/70 42/56/71
f 37/50/72 39/53/73 42/56/74
f 39/53/75 38/52/76 42/56/77
f 38/52/78 36/51/79 42/56/80
s 10
f 43/95/81 44/58/82 45/60/83
f 45/60/83 44/58/82 46/59/84
s 11
f 48/62/85 50/92/86 47/61/87
f 47/61/87 50/92/86 49/64/88
s 12
f 50/63/89 48/62/90 44/94/91
f 44/94/91 48/62/90 46/59/92
s 13
f 49/93/93 43/57/94 47/61/95
f 47/61/95 43/57/94 45/60/96
s off
f 45/60/97 46/59/98 51/65/99
f 46/59/100 48/62/101 51/65/102
f 48/62/103 47/61/104 51/65/105
f 47/61/106 45/60/107 51/65/108
s 14
f 52/91/109 53/67/110 54/69/111
f 54/69/111 53/67/110 55/68/112
s 15
f 57/71/113 59/88/114 56/70/115
f 56/70/115 59/88/114 58/73/116
s 16
f 53/90/117 59/72/118 55/68/119
f 55/68/119 59/72/118 57/71/120
s 17
f 52/66/121 54/69/122 58/89/123
f 58/89/123 54/69/122 56/70/124
s off
f 54/69/125 55/68/126 60/74/127
f 55/68/128 57/71/129 60/74/130
f 57/71/131 56/70/132 60/74/133
f 56/70/134 54/69/135 60/74/136
s 18
f 61/87/137 62/76/138 63/78/139
f 63/78/139 62/76/138 64/77/140
s 19
f 66/80/141 68/84/142 65/79/143
f 65/79/143 68/84/142 67/82/144
s 20
f 62/86/145 68/81/146 64/77/147
f 64/77/147 68/81/146 66/80/148
s 21
f 61/75/149 63/78/150 67/85/151
f 67/85/151 63/78/150 65/79/152
s off
f 63/78/153 64/77/154 69/83/155
f 64/77/156 66/80/157 69/83/158
f 66/80/159 65/79/160 69/83/161
f 65/79/162 63/78/163 69/83/164
