# This file uses centimeters as units for non-parametric coordinates.

mtllib TallGem.mtl
g default
v -0.006990 0.458941 0.338191
v 0.047926 0.456874 0.384962
v -0.089110 0.575175 0.383391
v 0.013122 0.596115 0.479028
v -0.008484 0.635605 0.283974
v 0.093748 0.656545 0.379610
v 0.037722 0.482631 0.286740
v 0.092638 0.480564 0.333511
v -0.022982 0.673390 0.395950
v -0.290826 0.419128 -0.011060
v -0.156542 0.478001 0.063883
v -0.464127 0.697844 -0.102620
v -0.211521 0.862386 0.013318
v -0.299134 0.635148 -0.373124
v -0.046528 0.799690 -0.257186
v -0.198918 0.373382 -0.139805
v -0.064634 0.432255 -0.064861
v -0.307855 0.872129 -0.240534
v 0.115625 0.367672 0.195319
v 0.280291 0.367672 0.195319
v 0.048573 0.617580 0.311082
v 0.366168 0.676214 0.306449
v 0.037595 0.651684 -0.009920
v 0.355189 0.710318 -0.014553
v 0.115625 0.367672 0.030652
v 0.280291 0.367672 0.030652
v 0.175556 0.807819 0.164449
v 0.086497 0.476687 -0.259938
v 0.139496 0.483160 -0.211393
v 0.052836 0.617556 -0.296269
v 0.160640 0.653455 -0.211856
v 0.144371 0.583929 -0.398868
v 0.252176 0.619828 -0.314455
v 0.133998 0.452469 -0.308567
v 0.186997 0.458942 -0.260021
v 0.149787 0.679160 -0.327606
v 0.281839 0.466581 -0.305575
v 0.349119 0.472825 -0.280240
v 0.252766 0.600288 -0.365362
v 0.386917 0.631709 -0.332920
v 0.297069 0.528499 -0.479028
v 0.431219 0.559920 -0.446586
v 0.305758 0.423828 -0.358561
v 0.373039 0.430072 -0.333227
v 0.337994 0.633807 -0.441451
v -0.500000 -0.500000 0.500000
v 0.500000 -0.500000 0.500000
v -0.500000 0.500000 0.500000
v 0.500000 0.500000 0.500000
v -0.500000 0.500000 -0.500000
v 0.500000 0.500000 -0.500000
v -0.500000 -0.500000 -0.500000
v 0.500000 -0.500000 -0.500000
vt 0.971796 0.519474
vt 0.975346 0.587362
vt 0.835605 0.490404
vt 0.819291 0.628836
vt 0.681109 0.612616
vt 0.528217 0.536241
vt 0.697099 0.474336
vt 0.548092 0.471169
vt 0.773679 0.782508
vt 0.705722 0.781230
vt 0.821607 0.351414
vt 0.755210 0.336178
vt 0.758276 0.551548
vt 0.975765 0.521933
vt 0.978249 0.588925
vt 0.841909 0.491231
vt 0.823753 0.627487
vt 0.687742 0.609427
vt 0.538126 0.531832
vt 0.705577 0.473316
vt 0.558696 0.467965
vt 0.776480 0.778331
vt 0.709491 0.776056
vt 0.830185 0.353972
vt 0.764942 0.337955
vt 0.764745 0.550365
vt 0.967152 0.514682
vt 0.968158 0.588417
vt 0.845629 0.484491
vt 0.823373 0.634178
vt 0.674039 0.612133
vt 0.540942 0.526890
vt 0.695759 0.462585
vt 0.564555 0.456767
vt 0.689759 0.768247
vt 0.763533 0.772192
vt 0.749743 0.341938
vt 0.821306 0.360573
vt 0.759700 0.548346
vt 0.801686 0.763538
vt 0.732761 0.769341
vt 0.826850 0.624098
vt 0.685543 0.611979
vt 0.697574 0.470928
vt 0.770305 0.312975
vt 0.838717 0.482722
vt 0.837124 0.331084
vt 0.552736 0.548730
vt 0.551839 0.479579
vt 0.967746 0.605372
vt 0.981096 0.537356
vt 0.762171 0.547432
vt 0.979883 0.530582
vt 0.978169 0.600963
vt 0.841557 0.489772
vt 0.813742 0.631423
vt 0.672341 0.603725
vt 0.520517 0.512746
vt 0.699810 0.462205
vt 0.546196 0.447126
vt 0.754466 0.786489
vt 0.684396 0.779785
vt 0.838116 0.345142
vt 0.770762 0.324148
vt 0.756863 0.546781
vt 0.249720 0.000000
vt 0.499720 0.000000
vt 0.249720 0.250000
vt 0.499720 0.250000
vt 0.249720 0.500000
vt 0.499720 0.500000
vt 0.249720 0.750000
vt 0.499720 0.750000
vt 0.249720 1.000000
vt 0.499720 1.000000
vt 0.749720 0.000000
vt 0.749720 0.250000
vt -0.000280 0.000000
vt -0.000280 0.250000
vn -0.529263 -0.605181 0.594674
vn -0.508637 -0.580745 0.635629
vn -0.502185 -0.573113 0.647574
vn -0.502185 -0.573113 0.647574
vn -0.508637 -0.580745 0.635629
vn -0.497478 -0.567549 0.656052
vn 0.649988 0.188732 -0.736136
vn 0.647057 0.185756 -0.739468
vn 0.648903 0.187629 -0.737374
vn 0.648903 0.187629 -0.737374
vn 0.647057 0.185756 -0.739468
vn 0.641693 0.180344 -0.745457
vn 0.783364 -0.201438 0.588017
vn 0.800780 -0.171609 0.573848
vn 0.807377 -0.159715 0.568008
vn 0.807377 -0.159715 0.568008
vn 0.800780 -0.171609 0.573848
vn 0.810995 -0.153037 0.564682
vn -0.686188 -0.214496 -0.695081
vn -0.687555 -0.219378 -0.692200
vn -0.687269 -0.218350 -0.692809
vn -0.687269 -0.218350 -0.692809
vn -0.687555 -0.219378 -0.692200
vn -0.687800 -0.220260 -0.691677
vn -0.673644 0.371893 0.638671
vn -0.673644 0.371893 0.638671
vn -0.673644 0.371893 0.638671
vn 0.196422 0.759062 0.620679
vn 0.196422 0.759062 0.620679
vn 0.196422 0.759062 0.620679
vn 0.093619 0.946959 -0.307417
vn 0.093619 0.946958 -0.307417
vn 0.093619 0.946958 -0.307417
vn -0.776446 0.559790 -0.289426
vn -0.776446 0.559790 -0.289426
vn -0.776446 0.559790 -0.289426
vn -0.483035 -0.012733 0.875508
vn -0.458449 0.031258 0.888171
vn -0.450836 0.044431 0.891501
vn -0.450836 0.044431 0.891501
vn -0.458449 0.031258 0.888171
vn -0.445304 0.053880 0.893757
vn 0.584199 -0.398786 -0.706882
vn 0.580935 -0.403006 -0.707177
vn 0.582990 -0.400353 -0.706994
vn 0.582990 -0.400353 -0.706994
vn 0.580935 -0.403006 -0.707177
vn 0.574974 -0.410633 -0.707662
vn 0.829741 0.187819 0.525599
vn 0.846272 0.199188 0.494113
vn 0.852501 0.203618 0.481438
vn 0.852501 0.203618 0.481438
vn 0.846272 0.199188 0.494113
vn 0.855908 0.206081 0.474291
vn -0.748939 -0.574280 -0.330595
vn -0.750117 -0.575871 -0.325112
vn -0.749871 -0.575537 -0.326267
vn -0.749871 -0.575537 -0.326267
vn -0.750117 -0.575871 -0.325112
vn -0.750327 -0.576156 -0.324119
vn -0.607903 0.750412 0.259493
vn -0.607903 0.750412 0.259493
vn -0.607903 0.750412 0.259493
vn 0.262877 0.962783 -0.062808
vn 0.262877 0.962783 -0.062808
vn 0.262877 0.962783 -0.062808
vn 0.080184 0.488943 -0.868623
vn 0.080184 0.488943 -0.868623
vn 0.080184 0.488943 -0.868623
vn -0.790596 0.276572 -0.546321
vn -0.790596 0.276572 -0.546321
vn -0.790596 0.276572 -0.546321
vn 0.000000 -0.420317 0.907377
vn 0.056376 -0.376137 0.924847
vn 0.066208 -0.368197 0.927387
vn 0.066208 -0.368197 0.927387
vn 0.056376 -0.376137 0.924847
vn 0.079542 -0.357317 0.930590
vn 0.010090 -0.132958 -0.991070
vn 0.007079 -0.135486 -0.990754
vn 0.008507 -0.134288 -0.990906
vn 0.008507 -0.134288 -0.990906
vn 0.007079 -0.135486 -0.990754
vn 0.000000 -0.141420 -0.989950
vn 0.976933 -0.213545 0.000000
vn 0.969274 -0.241258 -0.047980
vn 0.971433 -0.234532 -0.036229
vn 0.971433 -0.234532 -0.036229
vn 0.969274 -0.241258 -0.047980
vn 0.967001 -0.247753 -0.059394
vn -0.964268 -0.264928 0.000000
vn -0.964896 -0.262609 0.003448
vn -0.964996 -0.262233 0.004005
vn -0.964996 -0.262233 0.004005
vn -0.964896 -0.262609 0.003448
vn -0.965216 -0.261401 0.005240
vn -0.109345 0.651580 0.750658
vn -0.109345 0.651580 0.750658
vn -0.109345 0.651580 0.750658
vn 0.530014 0.844957 0.071642
vn 0.530014 0.844957 0.071642
vn 0.530014 0.844957 0.071642
vn -0.155130 0.793806 -0.588054
vn -0.155130 0.793806 -0.588053
vn -0.155130 0.793806 -0.588054
vn -0.794488 0.600428 0.090963
vn -0.794488 0.600428 0.090963
vn -0.794488 0.600428 0.090963
vn -0.677036 0.027885 0.735421
vn -0.647085 0.062621 0.759842
vn -0.637764 0.073003 0.766764
vn -0.637764 0.073003 0.766764
vn -0.647085 0.062621 0.759842
vn -0.630979 0.080444 0.771618
vn 0.636472 -0.465841 -0.614732
vn 0.632517 -0.469029 -0.616388
vn 0.635007 -0.467025 -0.615348
vn 0.635007 -0.467025 -0.615348
vn 0.632517 -0.469029 -0.616388
vn 0.625297 -0.474778 -0.619346
vn 0.691617 -0.083921 0.717372
vn 0.717653 -0.074218 0.692434
vn 0.727699 -0.070343 0.682280
vn 0.727699 -0.070343 0.682280
vn 0.717653 -0.074218 0.692434
vn 0.733258 -0.068165 0.676525
vn -0.752267 -0.327237 -0.571849
vn -0.755112 -0.328992 -0.567072
vn -0.754515 -0.328623 -0.568079
vn -0.754515 -0.328623 -0.568079
vn -0.755112 -0.328992 -0.567072
vn -0.755624 -0.329308 -0.566206
vn -0.466699 0.853114 0.233214
vn -0.466699 0.853114 0.233214
vn -0.466699 0.853114 0.233214
vn 0.481790 0.863923 0.146680
vn 0.481790 0.863923 0.146680
vn 0.481790 0.863923 0.146680
vn 0.404378 0.533105 -0.743154
vn 0.404378 0.533105 -0.743154
vn 0.404378 0.533105 -0.743154
vn -0.544112 0.522295 -0.656620
vn -0.544112 0.522295 -0.656620
vn -0.544112 0.522295 -0.656620
vn -0.359936 0.314504 0.878370
vn -0.319645 0.347154 0.881652
vn -0.307397 0.356760 0.882173
vn -0.307397 0.356760 0.882173
vn -0.319645 0.347154 0.881652
vn -0.298559 0.363602 0.882415
vn 0.318517 -0.700371 -0.638770
vn 0.313912 -0.703009 -0.638151
vn 0.316810 -0.701352 -0.638543
vn 0.316810 -0.701352 -0.638543
vn 0.313912 -0.703009 -0.638151
vn 0.305537 -0.707743 -0.636982
vn 0.889994 -0.061942 0.451746
vn 0.906199 -0.063007 0.418130
vn 0.912275 -0.063404 0.404640
vn 0.912275 -0.063404 0.404640
vn 0.906199 -0.063007 0.418130
vn 0.915592 -0.063621 0.397044
vn -0.938203 -0.289081 -0.190282
vn -0.939311 -0.289194 -0.184559
vn -0.939080 -0.289171 -0.185764
vn -0.939080 -0.289171 -0.185764
vn -0.939311 -0.289194 -0.184559
vn -0.939508 -0.289213 -0.183523
vn -0.256637 0.957147 0.134194
vn -0.256637 0.957147 0.134194
vn -0.256637 0.957147 0.134194
vn 0.592470 0.765071 -0.252280
vn 0.592470 0.765071 -0.252280
vn 0.592470 0.765071 -0.252280
vn 0.164959 0.273985 -0.947481
vn 0.164959 0.273985 -0.947481
vn 0.164959 0.273985 -0.947481
vn -0.684148 0.466060 -0.561007
vn -0.684149 0.466060 -0.561007
vn -0.684148 0.466060 -0.561007
vn 0.000000 0.000000 1.000000
vn 0.000000 0.000000 1.000000
vn 0.000000 0.000000 1.000000
vn 0.000000 0.000000 1.000000
vn 0.000000 1.000000 0.000000
vn 0.000000 1.000000 0.000000
vn 0.000000 1.000000 0.000000
vn 0.000000 1.000000 0.000000
vn 0.000000 0.000000 -1.000000
vn 0.000000 0.000000 -1.000000
vn 0.000000 0.000000 -1.000000
vn 0.000000 0.000000 -1.000000
vn 0.000000 -1.000000 0.000000
vn 0.000000 -1.000000 0.000000
vn 0.000000 -1.000000 0.000000
vn 0.000000 -1.000000 0.000000
vn 1.000000 0.000000 0.000000
vn 1.000000 0.000000 0.000000
vn 1.000000 0.000000 0.000000
vn 1.000000 0.000000 0.000000
vn -1.000000 0.000000 0.000000
vn -1.000000 0.000000 0.000000
vn -1.000000 0.000000 0.000000
vn -1.000000 0.000000 0.000000
s off
g TallGem:pCube10
usemtl initialShadingGroup
f 1/1/1 2/2/2 3/3/3
f 3/3/4 2/2/5 4/4/6
f 6/5/7 8/6/8 5/7/9
f 5/7/10 8/6/11 7/8/12
f 2/9/13 8/10/14 4/4/15
f 4/4/16 8/10/17 6/5/18
f 1/11/19 3/3/20 7/12/21
f 7/12/22 3/3/23 5/7/24
f 3/3/25 4/4/26 9/13/27
f 4/4/28 6/5/29 9/13/30
f 6/5/31 5/7/32 9/13/33
f 5/7/34 3/3/35 9/13/36
f 10/14/37 11/15/38 12/16/39
f 12/16/40 11/15/41 13/17/42
f 15/18/43 17/19/44 14/20/45
f 14/20/46 17/19/47 16/21/48
f 11/22/49 17/23/50 13/17/51
f 13/17/52 17/23/53 15/18/54
f 10/24/55 12/16/56 16/25/57
f 16/25/58 12/16/59 14/20/60
f 12/16/61 13/17/62 18/26/63
f 13/17/64 15/18/65 18/26/66
f 15/18/67 14/20/68 18/26/69
f 14/20/70 12/16/71 18/26/72
f 19/27/73 20/28/74 21/29/75
f 21/29/76 20/28/77 22/30/78
f 24/31/79 26/32/80 23/33/81
f 23/33/82 26/32/83 25/34/84
f 26/35/85 24/31/86 20/36/87
f 20/36/88 24/31/89 22/30/90
f 25/37/91 19/38/92 23/33/93
f 23/33/94 19/38/95 21/29/96
f 21/29/97 22/30/98 27/39/99
f 22/30/100 24/31/101 27/39/102
f 24/31/103 23/33/104 27/39/105
f 23/33/106 21/29/107 27/39/108
f 28/40/109 29/41/110 30/42/111
f 30/42/112 29/41/113 31/43/114
f 33/44/115 35/45/116 32/46/117
f 32/46/118 35/45/119 34/47/120
f 29/48/121 35/49/122 31/43/123
f 31/43/124 35/49/125 33/44/126
f 28/50/127 30/42/128 34/51/129
f 34/51/130 30/42/131 32/46/132
f 30/42/133 31/43/134 36/52/135
f 31/43/136 33/44/137 36/52/138
f 33/44/139 32/46/140 36/52/141
f 32/46/142 30/42/143 36/52/144
f 37/53/145 38/54/146 39/55/147
f 39/55/148 38/54/149 40/56/150
f 42/57/151 44/58/152 41/59/153
f 41/59/154 44/58/155 43/60/156
f 38/61/157 44/62/158 40/56/159
f 40/56/160 44/62/161 42/57/162
f 37/63/163 39/55/164 43/64/165
f 43/64/166 39/55/167 41/59/168
f 39/55/169 40/56/170 45/65/171
f 40/56/172 42/57/173 45/65/174
f 42/57/175 41/59/176 45/65/177
f 41/59/178 39/55/179 45/65/180
s 1
f 46/66/181 47/67/182 48/68/183
f 48/68/183 47/67/182 49/69/184
s 2
f 48/68/185 49/69/186 50/70/187
f 50/70/187 49/69/186 51/71/188
s 3
f 50/70/189 51/71/190 52/72/191
f 52/72/191 51/71/190 53/73/192
s 4
f 52/72/193 53/73/194 46/74/195
f 46/74/195 53/73/194 47/75/196
s 5
f 47/67/197 53/76/198 49/69/199
f 49/69/199 53/76/198 51/77/200
s 6
f 52/78/201 46/66/202 50/79/203
f 50/79/203 46/66/202 48/68/204
